<svg id="captainAmerica" xmlns="http://www.w3.org/2000/svg" viewBox="0 0 568 568">
  <title>captainAmerica</title>
  <g>
    <path d="M623,663a276,276,0,1,1,195.16-80.84A274.19,274.19,0,0,1,623,663Z" transform="translate(-339 -103)" fill="#fff"/>
    <path d="M623,119a267.11,267.11,0,1,1-104.31,21.05A266.31,266.31,0,0,1,623,119m0-16c-156.85,0-284,127.15-284,284S466.15,671,623,671,907,543.85,907,387,779.85,103,623,103Z" transform="translate(-339 -103)"/>
  </g>
  <g>
    <path d="M623,593c-113.59,0-206-92.41-206-206s92.41-206,206-206,206,92.41,206,206S736.59,593,623,593Z" transform="translate(-339 -103)" fill="#fff"/>
    <path d="M623,189a197.33,197.33,0,1,1-77.07,15.55A196.75,196.75,0,0,1,623,189m0-16c-118.19,0-214,95.81-214,214s95.81,214,214,214,214-95.81,214-214S741.19,173,623,173Z" transform="translate(-339 -103)"/>
  </g>
  <g>
    <path d="M623.5,546C535.55,546,464,474.45,464,386.5S535.55,227,623.5,227,783,298.55,783,386.5,711.45,546,623.5,546Z" transform="translate(-339 -103)" fill="#fff"/>
    <path d="M623.5,235a151.5,151.5,0,1,1-107.13,44.37A150.51,150.51,0,0,1,623.5,235m0-16A167.5,167.5,0,1,0,791,386.5,167.5,167.5,0,0,0,623.5,219Z" transform="translate(-339 -103)"/>
  </g>
  <g>
    <polygon points="215.01 309.47 142.29 242.14 239.29 224.74 279.97 134.24 326.26 222 424.16 233.26 355.83 305.03 375.55 402.58 287.05 359.03 201.48 408.07 215.01 309.47" fill="#fff"/>
    <path d="M619.54,255.47,656.21,325l3.94,7.47,8.39,1,77.76,8.94L691.91,399.5l-5.75,6,1.65,8.17,15.67,77.52L633.4,456.73,625.77,453l-7.38,4.23L550.62,496l10.75-78.35,1.13-8.25-6.11-5.66-57.88-53.59,77-13.82,8.31-1.49,3.46-7.7,32.22-71.7M618.39,219,572.73,320.61,464.08,340.1l81.44,75.41L530.34,526.1l96-55,99.27,48.86L703.5,410.53,780,330.14,670.36,317.54l-52-98.54Z" transform="translate(-339 -103)"/>
  </g>
</svg>
