<svg id="fantasticFour" xmlns="http://www.w3.org/2000/svg" viewBox="0 0 568 568">
  <title>fantasticFour</title>
  <g>
    <path d="M683,667.5a283.5,283.5,0,1,1,200.46-83A281.65,281.65,0,0,1,683,667.5Z" transform="translate(-399 -100)" fill="#fff"/>
    <path d="M683,101a282.11,282.11,0,1,1-110.16,22.24A281.23,281.23,0,0,1,683,101m0-1c-156.85,0-284,127.15-284,284S526.15,668,683,668,967,540.85,967,384,839.85,100,683,100Z" transform="translate(-399 -100)"/>
  </g>
  <g>
    <path d="M683,588c-112.49,0-204-91.51-204-204s91.51-204,204-204,204,91.51,204,204S795.49,588,683,588Z" transform="translate(-399 -100)" fill="#fff"/>
    <path d="M683,190a194,194,0,1,1-137.18,56.82A192.73,192.73,0,0,1,683,190m0-20c-118.19,0-214,95.81-214,214s95.81,214,214,214,214-95.81,214-214S801.19,170,683,170Z" transform="translate(-399 -100)"/>
  </g>
  <path d="M723.58,489.32V423.7H510.29V402.2L715.11,248.34H782.2V398.12h64.27V423.7H782.2v65.62Zm0-91.2V317.67a339.42,339.42,0,0,1,2.12-37.82h-2.12c-14.12,14.09-25.42,24.47-38.14,35.59L573.15,397.38v.74Z" transform="translate(-399 -100)"/>
</svg>
