<svg id="marvel" xmlns="http://www.w3.org/2000/svg" viewBox="0 0 778 376">
  <title>marvel</title>
  <g>
    <rect x="6" y="6" width="766" height="364" fill="#fff"/>
    <path d="M1094,200V552H340V200h754m12-12H328V564h778V188Z" transform="translate(-328 -188)"/>
  </g>
  <g>
    <path d="M478.75,370.68c-1.09-31-2.4-68.36-2.19-96.11h-.66c-5,26.09-11.15,53.83-18.58,84.55l-26,108H416.9l-23.82-106c-7-31.37-12.89-60.11-17-86.53h-.44c-.44,27.74-1.53,65.06-2.84,98.42l-3.93,95.45H350.68l10.27-222.6h24.26L410.34,353.5c6.12,27.41,11.15,51.85,14.86,75h.66c3.72-22.46,9-46.9,15.52-75L467.6,245.84h24.26L501,468.43H482.46Z" transform="translate(-328 -188)"/>
    <path d="M552,398.42l-15.3,70H517l50-222.6H590l50.27,222.6H619.93l-15.74-70ZM600.26,376l-14.42-64.07c-3.28-14.53-5.46-27.74-7.65-40.62h-.44c-2.19,13.21-4.59,26.75-7.43,40.29L555.9,376Z" transform="translate(-328 -188)"/>
    <path d="M661.9,248.81c9.62-3,23.39-4.62,36.5-4.62,20.33,0,33.44,5.61,42.62,18.16,7.43,9.91,11.58,25.1,11.58,42.27,0,29.39-12.24,48.88-27.76,56.8v1c11.37,5.94,18.14,21.8,21.64,44.92,4.81,31,8.3,52.51,11.36,61.1H738.17c-2.4-6.28-5.68-25.43-9.83-53.17C724,384.55,716.1,373,698.83,372H680.91v96.44h-19Zm19,101.39h19.45c20.33,0,33.22-16.84,33.22-42.27,0-28.73-13.77-41.28-33.88-41.61-9.18,0-15.74,1.32-18.79,2.64Z" transform="translate(-328 -188)"/>
    <path d="M815.32,468.43l-48.08-222.6h20.54l22.95,109.65c6.34,30.05,11.8,57.13,15.74,83.23h.44c4.15-25.76,10.27-53.83,16.83-82.9l24.92-110H889L836.3,468.43Z" transform="translate(-328 -188)"/>
    <path d="M981.2,364.07H923.94v80.25h63.82v24.11H904.93V245.84h79.55v24.11H923.94v70.35H981.2Z" transform="translate(-328 -188)"/>
    <path d="M1012.46,245.84h19V444.32h62.94v24.11h-82Z" transform="translate(-328 -188)"/>
  </g>
</svg>
