<svg id="superman" xmlns="http://www.w3.org/2000/svg" viewBox="0 0 568 568">
  <title>superman</title>
  <g>
    <path d="M700,623A275,275,0,0,1,505.55,153.55,275,275,0,1,1,894.45,542.45,273.2,273.2,0,0,1,700,623Z" transform="translate(-416 -64)" fill="#fff"/>
    <path d="M700,82a265.11,265.11,0,1,1-103.53,20.9A264.32,264.32,0,0,1,700,82m0-18C543.15,64,416,191.15,416,348S543.15,632,700,632,984,504.85,984,348,856.85,64,700,64Z" transform="translate(-416 -64)"/>
  </g>
  <line x1="136.5" y1="197.5" x2="430.5" y2="195.5" fill="none" stroke="#000" stroke-miterlimit="10" stroke-width="18"/>
  <line x1="120.5" y1="240.5" x2="143.5" y2="197.5" fill="none" stroke="#000" stroke-miterlimit="10" stroke-width="18"/>
  <line x1="455.5" y1="240.5" x2="430.5" y2="196.5" fill="none" stroke="#000" stroke-miterlimit="10" stroke-width="18"/>
  <line x1="113.5" y1="240.5" x2="284.5" y2="438.5" fill="none" stroke="#000" stroke-miterlimit="10" stroke-width="18"/>
  <line x1="455.5" y1="240.5" x2="284.5" y2="438.5" fill="none" stroke="#000" stroke-miterlimit="10" stroke-width="18"/>
  <path d="M615.77,376.19c18.75,4.37,46.15,8,75,8,42.79,0,67.78-8.56,67.78-20.94,0-11.47-17.31-18-61.05-24.4-52.88-7.1-85.57-17.48-85.57-34.77,0-19.12,41.82-33.32,104.8-33.32,33.17,0,57.21,2.91,71.63,6l-11.54,12.93a307.64,307.64,0,0,0-61.53-5.83c-44.23,0-61.05,10-61.05,18.39,0,11.47,19.71,17.11,64.42,23.67,54.8,8,82.69,18,82.69,36,0,18.93-37,35.32-113.45,35.32-31.25,0-65.38-3.46-82.69-7.83Z" transform="translate(-416 -64)"/>
</svg>
