<svg style="position: absolute; width: 0; height: 0; overflow: hidden;" version="1.1" xmlns="http://www.w3.org/2000/svg" xmlns:xlink="http://www.w3.org/1999/xlink">
<symbol id="bolt" xmlns="http://www.w3.org/2000/svg" viewBox="0 0 568 568">
  <title>bolt</title>
    <path d="M683,660a276,276,0,1,1,195.16-80.84A274.19,274.19,0,0,1,683,660Z" transform="translate(-399 -100)" fill="#fff"/>
    <path d="M683,116a267.11,267.11,0,1,1-104.31,21.05A266.31,266.31,0,0,1,683,116m0-16c-156.85,0-284,127.15-284,284S526.15,668,683,668,967,540.85,967,384,839.85,100,683,100Z" transform="translate(-399 -100)"/>
    <path d="M683.5,608a223.5,223.5,0,1,1,158-65.46A222,222,0,0,1,683.5,608Z" transform="translate(-399 -100)" fill="#fff"/>
    <path d="M683.5,169a214.78,214.78,0,1,1-83.88,16.93A214.14,214.14,0,0,1,683.5,169m0-16C555.65,153,452,256.65,452,384.5S555.65,616,683.5,616,915,512.35,915,384.5,811.35,153,683.5,153Z" transform="translate(-399 -100)"/>
  <line x1="210" y1="196" x2="338" y2="83" fill="none" stroke="#000" stroke-miterlimit="10" stroke-width="16"/>
  <line x1="322" y1="194" x2="338" y2="83" fill="none" stroke="#000" stroke-miterlimit="10" stroke-width="16"/>
  <line x1="379" y1="197" x2="315" y2="193" fill="none" stroke="#000" stroke-miterlimit="10" stroke-width="16"/>
  <line x1="314" y1="282" x2="372" y2="196" fill="none" stroke="#000" stroke-miterlimit="10" stroke-width="16"/>
  <line x1="421" y1="278" x2="321" y2="278" fill="none" stroke="#000" stroke-miterlimit="10" stroke-width="16"/>
  <line x1="262" y1="474" x2="416" y2="279" fill="none" stroke="#000" stroke-miterlimit="10" stroke-width="16"/>
  <line x1="213" y1="193" x2="255" y2="199" fill="none" stroke="#000" stroke-miterlimit="10" stroke-width="16"/>
  <line x1="213" y1="318" x2="248" y2="194" fill="none" stroke="#000" stroke-miterlimit="10" stroke-width="16"/>
  <line x1="254" y1="290" x2="212" y2="314" fill="none" stroke="#000" stroke-miterlimit="10" stroke-width="16"/>
  <line x1="265" y1="473" x2="252" y2="284" fill="none" stroke="#000" stroke-miterlimit="10" stroke-width="16"/>
</symbol>
<symbol id="captainAmerica" xmlns="http://www.w3.org/2000/svg" viewBox="0 0 568 568">
  <title>captainAmerica</title>
    <path d="M623,663a276,276,0,1,1,195.16-80.84A274.19,274.19,0,0,1,623,663Z" transform="translate(-339 -103)" fill="#fff"/>
    <path d="M623,119a267.11,267.11,0,1,1-104.31,21.05A266.31,266.31,0,0,1,623,119m0-16c-156.85,0-284,127.15-284,284S466.15,671,623,671,907,543.85,907,387,779.85,103,623,103Z" transform="translate(-339 -103)"/>
    <path d="M623,593c-113.59,0-206-92.41-206-206s92.41-206,206-206,206,92.41,206,206S736.59,593,623,593Z" transform="translate(-339 -103)" fill="#fff"/>
    <path d="M623,189a197.33,197.33,0,1,1-77.07,15.55A196.75,196.75,0,0,1,623,189m0-16c-118.19,0-214,95.81-214,214s95.81,214,214,214,214-95.81,214-214S741.19,173,623,173Z" transform="translate(-339 -103)"/>
    <path d="M623.5,546C535.55,546,464,474.45,464,386.5S535.55,227,623.5,227,783,298.55,783,386.5,711.45,546,623.5,546Z" transform="translate(-339 -103)" fill="#fff"/>
    <path d="M623.5,235a151.5,151.5,0,1,1-107.13,44.37A150.51,150.51,0,0,1,623.5,235m0-16A167.5,167.5,0,1,0,791,386.5,167.5,167.5,0,0,0,623.5,219Z" transform="translate(-339 -103)"/>
    <polygon points="215.01 309.47 142.29 242.14 239.29 224.74 279.97 134.24 326.26 222 424.16 233.26 355.83 305.03 375.55 402.58 287.05 359.03 201.48 408.07 215.01 309.47" fill="#fff"/>
    <path d="M619.54,255.47,656.21,325l3.94,7.47,8.39,1,77.76,8.94L691.91,399.5l-5.75,6,1.65,8.17,15.67,77.52L633.4,456.73,625.77,453l-7.38,4.23L550.62,496l10.75-78.35,1.13-8.25-6.11-5.66-57.88-53.59,77-13.82,8.31-1.49,3.46-7.7,32.22-71.7M618.39,219,572.73,320.61,464.08,340.1l81.44,75.41L530.34,526.1l96-55,99.27,48.86L703.5,410.53,780,330.14,670.36,317.54l-52-98.54Z" transform="translate(-339 -103)"/>
</symbol>


<symbol id="fantasticFour" xmlns="http://www.w3.org/2000/svg" viewBox="0 0 568 568">
  <title>fantasticFour</title>
    <path d="M683,667.5a283.5,283.5,0,1,1,200.46-83A281.65,281.65,0,0,1,683,667.5Z" transform="translate(-399 -100)" fill="#fff"/>
    <path d="M683,101a282.11,282.11,0,1,1-110.16,22.24A281.23,281.23,0,0,1,683,101m0-1c-156.85,0-284,127.15-284,284S526.15,668,683,668,967,540.85,967,384,839.85,100,683,100Z" transform="translate(-399 -100)"/>
    <path d="M683,588c-112.49,0-204-91.51-204-204s91.51-204,204-204,204,91.51,204,204S795.49,588,683,588Z" transform="translate(-399 -100)" fill="#fff"/>
    <path d="M683,190a194,194,0,1,1-137.18,56.82A192.73,192.73,0,0,1,683,190m0-20c-118.19,0-214,95.81-214,214s95.81,214,214,214,214-95.81,214-214S801.19,170,683,170Z" transform="translate(-399 -100)"/>
  <path d="M723.58,489.32V423.7H510.29V402.2L715.11,248.34H782.2V398.12h64.27V423.7H782.2v65.62Zm0-91.2V317.67a339.42,339.42,0,0,1,2.12-37.82h-2.12c-14.12,14.09-25.42,24.47-38.14,35.59L573.15,397.38v.74Z" transform="translate(-399 -100)"/>
</symbol>
<symbol id="greenLantern" xmlns="http://www.w3.org/2000/svg" viewBox="0 0 568 568">
  <title>greenLantern</title>
    <path d="M683,658a274,274,0,1,1,193.75-80.25A272.21,272.21,0,0,1,683,658Z" transform="translate(-399 -100)" fill="#fff"/>
    <path d="M683,120a263.11,263.11,0,1,1-102.75,20.74A262.33,262.33,0,0,1,683,120m0-20c-156.85,0-284,127.15-284,284S526.15,668,683,668,967,540.85,967,384,839.85,100,683,100Z" transform="translate(-399 -100)"/>
    <path d="M683,489A105,105,0,1,1,788,384,105.12,105.12,0,0,1,683,489Z" transform="translate(-399 -100)" fill="#fff"/>
    <path d="M683,289a95,95,0,1,1-95,95,95.11,95.11,0,0,1,95-95m0-20A115,115,0,1,0,798,384,115,115,0,0,0,683,269Z" transform="translate(-399 -100)"/>
    <rect x="147" y="113" width="289" height="46" fill="#fff"/>
    <path d="M825,223v26H556V223H825m20-20H536v66H845V203Z" transform="translate(-399 -100)"/>
    <rect x="140" y="409" width="289" height="46" fill="#fff"/>
    <path d="M818,519v26H549V519H818m20-20H529v66H838V499Z" transform="translate(-399 -100)"/>
</symbol>
<symbol id="marvel" xmlns="http://www.w3.org/2000/svg" viewBox="0 0 778 376">
  <title>marvel</title>
    <rect x="6" y="6" width="766" height="364" fill="#fff"/>
    <path d="M1094,200V552H340V200h754m12-12H328V564h778V188Z" transform="translate(-328 -188)"/>
    <path d="M478.75,370.68c-1.09-31-2.4-68.36-2.19-96.11h-.66c-5,26.09-11.15,53.83-18.58,84.55l-26,108H416.9l-23.82-106c-7-31.37-12.89-60.11-17-86.53h-.44c-.44,27.74-1.53,65.06-2.84,98.42l-3.93,95.45H350.68l10.27-222.6h24.26L410.34,353.5c6.12,27.41,11.15,51.85,14.86,75h.66c3.72-22.46,9-46.9,15.52-75L467.6,245.84h24.26L501,468.43H482.46Z" transform="translate(-328 -188)"/>
    <path d="M552,398.42l-15.3,70H517l50-222.6H590l50.27,222.6H619.93l-15.74-70ZM600.26,376l-14.42-64.07c-3.28-14.53-5.46-27.74-7.65-40.62h-.44c-2.19,13.21-4.59,26.75-7.43,40.29L555.9,376Z" transform="translate(-328 -188)"/>
    <path d="M661.9,248.81c9.62-3,23.39-4.62,36.5-4.62,20.33,0,33.44,5.61,42.62,18.16,7.43,9.91,11.58,25.1,11.58,42.27,0,29.39-12.24,48.88-27.76,56.8v1c11.37,5.94,18.14,21.8,21.64,44.92,4.81,31,8.3,52.51,11.36,61.1H738.17c-2.4-6.28-5.68-25.43-9.83-53.17C724,384.55,716.1,373,698.83,372H680.91v96.44h-19Zm19,101.39h19.45c20.33,0,33.22-16.84,33.22-42.27,0-28.73-13.77-41.28-33.88-41.61-9.18,0-15.74,1.32-18.79,2.64Z" transform="translate(-328 -188)"/>
    <path d="M815.32,468.43l-48.08-222.6h20.54l22.95,109.65c6.34,30.05,11.8,57.13,15.74,83.23h.44c4.15-25.76,10.27-53.83,16.83-82.9l24.92-110H889L836.3,468.43Z" transform="translate(-328 -188)"/>
    <path d="M981.2,364.07H923.94v80.25h63.82v24.11H904.93V245.84h79.55v24.11H923.94v70.35H981.2Z" transform="translate(-328 -188)"/>
    <path d="M1012.46,245.84h19V444.32h62.94v24.11h-82Z" transform="translate(-328 -188)"/>
</symbol>
<symbol id="superman" xmlns="http://www.w3.org/2000/svg" viewBox="0 0 568 568">
  <title>superman</title>
    <path d="M700,623A275,275,0,0,1,505.55,153.55,275,275,0,1,1,894.45,542.45,273.2,273.2,0,0,1,700,623Z" transform="translate(-416 -64)" fill="#fff"/>
    <path d="M700,82a265.11,265.11,0,1,1-103.53,20.9A264.32,264.32,0,0,1,700,82m0-18C543.15,64,416,191.15,416,348S543.15,632,700,632,984,504.85,984,348,856.85,64,700,64Z" transform="translate(-416 -64)"/>
  <line x1="136.5" y1="197.5" x2="430.5" y2="195.5" fill="none" stroke="#000" stroke-miterlimit="10" stroke-width="18"/>
  <line x1="120.5" y1="240.5" x2="143.5" y2="197.5" fill="none" stroke="#000" stroke-miterlimit="10" stroke-width="18"/>
  <line x1="455.5" y1="240.5" x2="430.5" y2="196.5" fill="none" stroke="#000" stroke-miterlimit="10" stroke-width="18"/>
  <line x1="113.5" y1="240.5" x2="284.5" y2="438.5" fill="none" stroke="#000" stroke-miterlimit="10" stroke-width="18"/>
  <line x1="455.5" y1="240.5" x2="284.5" y2="438.5" fill="none" stroke="#000" stroke-miterlimit="10" stroke-width="18"/>
  <path d="M615.77,376.19c18.75,4.37,46.15,8,75,8,42.79,0,67.78-8.56,67.78-20.94,0-11.47-17.31-18-61.05-24.4-52.88-7.1-85.57-17.48-85.57-34.77,0-19.12,41.82-33.32,104.8-33.32,33.17,0,57.21,2.91,71.63,6l-11.54,12.93a307.64,307.64,0,0,0-61.53-5.83c-44.23,0-61.05,10-61.05,18.39,0,11.47,19.71,17.11,64.42,23.67,54.8,8,82.69,18,82.69,36,0,18.93-37,35.32-113.45,35.32-31.25,0-65.38-3.46-82.69-7.83Z" transform="translate(-416 -64)"/>
</symbol>

<symbol id="thor" xmlns="http://www.w3.org/2000/svg" viewBox="0 0 564 564">
  <title>thor</title>
    <path d="M683,642a274,274,0,1,1,193.75-80.25A272.2,272.2,0,0,1,683,642Z" transform="translate(-401 -86)" fill="#fff"/>
    <path d="M683,102a265.12,265.12,0,1,1-103.53,20.9A264.32,264.32,0,0,1,683,102m0-16C527.26,86,401,212.26,401,368S527.26,650,683,650,965,523.74,965,368,838.74,86,683,86Z" transform="translate(-401 -86)"/>
    <path d="M780.2,442.67a5.93,5.93,0,0,1-3.2-.94L590,322.08a6,6,0,0,1-1.82-8.29l62.52-97.71a6,6,0,0,1,5.09-2.76,5.93,5.93,0,0,1,3.2.94L846,333.92a6,6,0,0,1,1.82,8.29l-62.52,97.71A6,6,0,0,1,780.2,442.67Z" transform="translate(-401 -86)" fill="#fff"/>
    <path d="M655.79,219.33,842.73,338.95s0,0,0,0h0l-62.5,97.68s0,0,0,0l-187-119.63s0,0,0,0h0l62.5-97.68h0m0-12a12,12,0,0,0-10.14,5.52l-62.52,97.71a12,12,0,0,0,3.64,16.58l187,119.66a12,12,0,0,0,16.58-3.64l62.52-97.71a12,12,0,0,0-3.64-16.58l-187-119.66a11.9,11.9,0,0,0-6.44-1.88Z" transform="translate(-401 -86)"/>
    <path d="M598.77,548.72a2.74,2.74,0,0,1-1.48-.43l-40.22-25.74a2.82,2.82,0,0,1-.84-3.84L651.39,370a2.78,2.78,0,0,1,2.36-1.28,2.74,2.74,0,0,1,1.48.43l40.22,25.74a2.8,2.8,0,0,1,.84,3.84L601.13,547.44A2.79,2.79,0,0,1,598.77,548.72Z" transform="translate(-401 -86)" fill="#fff"/>
    <path d="M654.26,373.87l37.33,23.89L598.27,543.57l-37.33-23.89,93.31-145.82m-.5-9.65a7.29,7.29,0,0,0-6.15,3.35L552.44,516.28a7.3,7.3,0,0,0,2.21,10.06l40.22,25.74a7.3,7.3,0,0,0,10.06-2.21l95.16-148.71a7.3,7.3,0,0,0-2.21-10.06l-40.22-25.74a7.22,7.22,0,0,0-3.91-1.14Z" transform="translate(-401 -86)"/>
  <line x1="210" y1="242" x2="275" y2="144" fill="none" stroke="#000" stroke-miterlimit="10" stroke-width="6"/>
  <line x1="219" y1="249" x2="284" y2="151" fill="none" stroke="#000" stroke-miterlimit="10" stroke-width="6"/>
  <line x1="343" y1="327" x2="408" y2="229" fill="none" stroke="#000" stroke-miterlimit="10" stroke-width="6"/>
  <line x1="352" y1="334" x2="417" y2="236" fill="none" stroke="#000" stroke-miterlimit="10" stroke-width="6"/>
</symbol>
</svg>
