<svg style="position: absolute; width: 0; height: 0; overflow: hidden;" version="1.1" xmlns="http://www.w3.org/2000/svg" xmlns:xlink="http://www.w3.org/1999/xlink">
<defs>
<symbol id="icon-bolt" viewBox="0 0 32 32">
<title>bolt</title>
<path fill="#fff" style="fill: var(--color1, #fff)" d="M16 31.549c-0 0-0 0-0 0-8.588 0-15.549-6.962-15.549-15.549s6.962-15.549 15.549-15.549c8.588 0 15.549 6.962 15.549 15.549 0 4.294-1.74 8.181-4.554 10.995-2.798 2.813-6.672 4.554-10.953 4.554-0.015 0-0.030-0-0.044-0z"></path>
<path fill="#000" style="fill: var(--color2, #000)" d="M16 0.901c8.302 0.012 15.027 6.745 15.027 15.048 0 8.311-6.737 15.048-15.048 15.048s-15.048-6.737-15.048-15.048c0-6.196 3.745-11.518 9.095-13.825 1.823-0.787 3.833-1.223 5.944-1.223 0.011 0 0.021 0 0.032 0zM16 0c-8.837 0-16 7.163-16 16s7.163 16 16 16 16-7.163 16-16-7.163-16-16-16z"></path>
<path fill="#fff" style="fill: var(--color1, #fff)" d="M16.028 28.62c-0.001 0-0.001 0-0.002 0-6.954 0-12.592-5.637-12.592-12.592s5.637-12.592 12.592-12.592c6.954 0 12.592 5.637 12.592 12.592 0 3.477-1.409 6.625-3.688 8.904-2.266 2.278-5.402 3.688-8.868 3.688-0.012 0-0.023-0-0.035-0z"></path>
<path fill="#000" style="fill: var(--color2, #000)" d="M16.028 3.887c6.676 0.010 12.083 5.423 12.083 12.1 0 6.683-5.417 12.1-12.1 12.1s-12.1-5.417-12.1-12.1c0-4.982 3.011-9.261 7.313-11.116 1.466-0.633 3.082-0.984 4.78-0.984 0.008 0 0.017 0 0.025 0zM16.028 2.986c-7.203 0-13.042 5.839-13.042 13.042s5.839 13.042 13.042 13.042 13.042-5.839 13.042-13.042-5.839-13.042-13.042-13.042z"></path>
<path fill="none" stroke="#000" stroke-width="0.9014" stroke-miterlimit="10" stroke-linecap="butt" stroke-linejoin="miter" d="M11.831 11.042l7.211-6.366"></path>
<path fill="none" stroke="#000" stroke-width="0.9014" stroke-miterlimit="10" stroke-linecap="butt" stroke-linejoin="miter" d="M18.141 10.93l0.901-6.254"></path>
<path fill="none" stroke="#000" stroke-width="0.9014" stroke-miterlimit="10" stroke-linecap="butt" stroke-linejoin="miter" d="M21.352 11.099l-3.606-0.225"></path>
<path fill="none" stroke="#000" stroke-width="0.9014" stroke-miterlimit="10" stroke-linecap="butt" stroke-linejoin="miter" d="M17.69 15.887l3.268-4.845"></path>
<path fill="none" stroke="#000" stroke-width="0.9014" stroke-miterlimit="10" stroke-linecap="butt" stroke-linejoin="miter" d="M23.718 15.662h-5.634"></path>
<path fill="none" stroke="#000" stroke-width="0.9014" stroke-miterlimit="10" stroke-linecap="butt" stroke-linejoin="miter" d="M14.761 26.704l8.676-10.986"></path>
<path fill="none" stroke="#000" stroke-width="0.9014" stroke-miterlimit="10" stroke-linecap="butt" stroke-linejoin="miter" d="M12 10.873l2.366 0.338"></path>
<path fill="none" stroke="#000" stroke-width="0.9014" stroke-miterlimit="10" stroke-linecap="butt" stroke-linejoin="miter" d="M12 17.916l1.972-6.986"></path>
<path fill="none" stroke="#000" stroke-width="0.9014" stroke-miterlimit="10" stroke-linecap="butt" stroke-linejoin="miter" d="M14.31 16.338l-2.366 1.352"></path>
<path fill="none" stroke="#000" stroke-width="0.9014" stroke-miterlimit="10" stroke-linecap="butt" stroke-linejoin="miter" d="M14.93 26.648l-0.732-10.648"></path>
</symbol>
<symbol id="icon-captainAmerica" viewBox="0 0 32 32">
<title>captainAmerica</title>
<path fill="#fff" style="fill: var(--color1, #fff)" d="M16 31.549c-0 0-0 0-0 0-8.588 0-15.549-6.962-15.549-15.549s6.962-15.549 15.549-15.549c8.588 0 15.549 6.962 15.549 15.549 0 4.294-1.74 8.181-4.554 10.995-2.798 2.813-6.672 4.554-10.953 4.554-0.015 0-0.030-0-0.044-0z"></path>
<path fill="#000" style="fill: var(--color2, #000)" d="M16 0.901c8.302 0.012 15.027 6.745 15.027 15.048 0 8.311-6.737 15.048-15.048 15.048s-15.048-6.737-15.048-15.048c0-6.196 3.745-11.518 9.095-13.825 1.823-0.787 3.833-1.223 5.944-1.223 0.011 0 0.021 0 0.032 0zM16 0c-8.837 0-16 7.163-16 16s7.163 16 16 16 16-7.163 16-16-7.163-16-16-16z"></path>
<path fill="#fff" style="fill: var(--color1, #fff)" d="M16 27.606c-6.399 0-11.606-5.206-11.606-11.606s5.206-11.606 11.606-11.606 11.606 5.206 11.606 11.606-5.206 11.606-11.606 11.606z"></path>
<path fill="#000" style="fill: var(--color2, #000)" d="M16 4.845c6.133 0.009 11.101 4.983 11.101 11.117 0 6.14-4.977 11.117-11.117 11.117s-11.117-4.977-11.117-11.117c0-4.578 2.767-8.509 6.719-10.213 1.347-0.582 2.831-0.904 4.391-0.904 0.008 0 0.016 0 0.024 0zM16 3.944c-6.659 0-12.056 5.398-12.056 12.056s5.398 12.056 12.056 12.056 12.056-5.398 12.056-12.056-5.398-12.056-12.056-12.056z"></path>
<path fill="#fff" style="fill: var(--color1, #fff)" d="M16.028 24.958c-4.955 0-8.986-4.031-8.986-8.986s4.031-8.986 8.986-8.986 8.986 4.031 8.986 8.986-4.031 8.986-8.986 8.986z"></path>
<path fill="#000" style="fill: var(--color2, #000)" d="M16.028 7.437c4.714 0 8.535 3.821 8.535 8.535s-3.821 8.535-8.535 8.535-8.535-3.821-8.535-8.535c0-2.357 0.955-4.491 2.5-6.036 1.536-1.544 3.662-2.5 6.012-2.5 0.008 0 0.017 0 0.025 0zM16.028 6.535c-5.212 0-9.437 4.225-9.437 9.437s4.225 9.437 9.437 9.437c5.212 0 9.437-4.225 9.437-9.437s-4.225-9.437-9.437-9.437z"></path>
<path fill="#fff" style="fill: var(--color1, #fff)" d="M12.113 17.435l-4.097-3.793 5.465-0.98 2.292-5.099 2.608 4.944 5.515 0.634-3.85 4.043 1.111 5.496-4.986-2.454-4.821 2.763 0.762-5.555z"></path>
<path fill="#000" style="fill: var(--color2, #000)" d="M15.805 8.59l2.288 4.338 0.473 0.056 4.381 0.504-3.388 3.554 0.093 0.46 0.883 4.367-4.378-2.152-4.234 2.423 0.606-4.414 0.064-0.465-3.605-3.338 4.806-0.863 2.010-4.473zM15.74 6.535l-2.572 5.725-6.121 1.098 4.588 4.248-0.855 6.23 5.408-3.099 5.593 2.753-1.246-6.165 4.31-4.529-6.177-0.71-2.93-5.552z"></path>
</symbol>
<symbol id="icon-fantasticFour" viewBox="0 0 32 32">
<title>fantasticFour</title>
<path fill="#fff" style="fill: var(--color1, #fff)" d="M16 31.972c-8.82-0.001-15.97-7.151-15.97-15.972s7.151-15.972 15.972-15.972 15.972 7.151 15.972 15.972c0 4.412-1.788 8.405-4.68 11.296-2.874 2.889-6.853 4.676-11.249 4.676-0.016 0-0.032-0-0.047-0z"></path>
<path fill="#000" style="fill: var(--color2, #000)" d="M16 0.056c8.769 0.012 15.873 7.123 15.873 15.893 0 8.778-7.116 15.894-15.894 15.894s-15.894-7.116-15.894-15.894c0-6.544 3.955-12.164 9.605-14.601 1.925-0.832 4.048-1.293 6.278-1.293 0.011 0 0.022 0 0.033 0zM16 0c-8.837 0-16 7.163-16 16s7.163 16 16 16 16-7.163 16-16-7.163-16-16-16z"></path>
<path fill="#fff" style="fill: var(--color1, #fff)" d="M16 27.493c-6.337 0-11.493-5.155-11.493-11.493s5.155-11.493 11.493-11.493 11.493 5.155 11.493 11.493-5.155 11.493-11.493 11.493z"></path>
<path fill="#000" style="fill: var(--color2, #000)" d="M16 5.070c6.036 0 10.929 4.893 10.929 10.93s-4.893 10.93-10.93 10.93-10.93-4.893-10.93-10.93c0-3.018 1.223-5.751 3.201-7.728 1.967-1.977 4.69-3.201 7.699-3.201 0.010 0 0.021 0 0.031 0zM16 3.944c-6.659 0-12.056 5.398-12.056 12.056s5.398 12.056 12.056 12.056 12.056-5.398 12.056-12.056-5.398-12.056-12.056-12.056z"></path>
<path fill="#000" style="fill: var(--color2, #000)" d="M18.286 21.934v-3.697h-12.016v-1.211l11.539-8.668h3.78v8.438h3.621v1.441h-3.621v3.697zM18.286 16.796v-4.532c0-0.751 0.044-1.491 0.128-2.22l-0.128 0.089c-0.796 0.794-1.432 1.379-2.149 2.005l-6.326 4.616v0.042z"></path>
</symbol>
<symbol id="icon-greenLantern" viewBox="0 0 32 32">
<title>greenLantern</title>
<path fill="#fff" style="fill: var(--color1, #fff)" d="M16 31.437c-8.525-0-15.436-6.911-15.436-15.437s6.911-15.437 15.437-15.437 15.437 6.911 15.437 15.437c0 4.263-1.728 8.122-4.521 10.916-2.778 2.793-6.624 4.521-10.873 4.521-0.015 0-0.030-0-0.044-0z"></path>
<path fill="#000" style="fill: var(--color2, #000)" d="M16 1.127c8.178 0.012 14.803 6.644 14.803 14.823 0 8.187-6.637 14.823-14.823 14.823s-14.823-6.637-14.823-14.823c0-6.103 3.689-11.345 8.958-13.618 1.796-0.776 3.776-1.205 5.856-1.205 0.010 0 0.021 0 0.031 0zM16 0c-8.837 0-16 7.163-16 16s7.163 16 16 16 16-7.163 16-16-7.163-16-16-16z"></path>
<path fill="#fff" style="fill: var(--color1, #fff)" d="M16 21.916c-3.267 0-5.915-2.648-5.915-5.916s2.648-5.915 5.915-5.915c3.267 0 5.916 2.648 5.916 5.915-0.004 3.265-2.65 5.912-5.915 5.916z"></path>
<path fill="#000" style="fill: var(--color2, #000)" d="M16 10.648c2.956 0 5.352 2.396 5.352 5.352s-2.396 5.352-5.352 5.352c-2.956 0-5.352-2.396-5.352-5.352 0.004-2.954 2.398-5.349 5.352-5.352zM16 9.521c-3.578 0-6.479 2.901-6.479 6.479s2.901 6.479 6.479 6.479c3.578 0 6.479-2.901 6.479-6.479s-2.901-6.479-6.479-6.479z"></path>
<path fill="#fff" style="fill: var(--color1, #fff)" d="M8.282 6.366h16.282v2.592h-16.282v-2.592z"></path>
<path fill="#000" style="fill: var(--color2, #000)" d="M24 6.93v1.465h-15.155v-1.465h15.155zM25.127 5.803h-17.408v3.718h17.408v-3.718z"></path>
<path fill="#fff" style="fill: var(--color1, #fff)" d="M7.887 23.042h16.282v2.592h-16.282v-2.592z"></path>
<path fill="#000" style="fill: var(--color2, #000)" d="M23.606 23.606v1.465h-15.155v-1.465h15.155zM24.732 22.479h-17.408v3.718h17.408v-3.718z"></path>
</symbol>
<symbol id="icon-marvel" viewBox="0 0 66 32">
<title>marvel</title>
<path fill="#fff" style="fill: var(--color1, #fff)" d="M0.511 0.511h65.192v30.979h-65.192v-30.979z"></path>
<path fill="#000" style="fill: var(--color2, #000)" d="M65.192 1.021v29.957h-64.17v-29.957h64.17zM66.213 0h-66.213v32h66.213v-32z"></path>
<path fill="#000" style="fill: var(--color2, #000)" d="M12.83 15.547c-0.093-2.638-0.204-5.818-0.186-8.18h-0.056c-0.426 2.22-0.949 4.581-1.581 7.196l-2.213 9.191h-1.227l-2.027-9.021c-0.596-2.67-1.097-5.116-1.447-7.364h-0.037c-0.037 2.361-0.13 5.537-0.242 8.376l-0.334 8.123h-1.548l0.874-18.945h2.065l2.139 9.161c0.521 2.333 0.949 4.413 1.265 6.383h0.056c0.317-1.912 0.766-3.991 1.321-6.383l2.232-9.163h2.065l0.778 18.944h-1.578z"></path>
<path fill="#000" style="fill: var(--color2, #000)" d="M19.064 17.908l-1.302 5.957h-1.677l4.255-18.945h1.957l4.278 18.945h-1.731l-1.34-5.957zM23.171 16l-1.227-5.453c-0.279-1.237-0.465-2.361-0.651-3.457h-0.037c-0.186 1.124-0.391 2.277-0.632 3.429l-1.227 5.481z"></path>
<path fill="#000" style="fill: var(--color2, #000)" d="M28.417 5.175c0.819-0.255 1.991-0.393 3.106-0.393 1.73 0 2.846 0.477 3.627 1.546 0.632 0.843 0.986 2.136 0.986 3.597 0 2.501-1.042 4.16-2.363 4.834v0.085c0.968 0.506 1.544 1.855 1.842 3.823 0.409 2.638 0.706 4.469 0.967 5.2h-1.674c-0.204-0.534-0.483-2.164-0.837-4.525-0.369-2.614-1.042-3.597-2.511-3.683h-1.525v8.208h-1.617zM30.034 13.804h1.655c1.73 0 2.827-1.433 2.827-3.597 0-2.445-1.172-3.513-2.883-3.541-0.781 0-1.34 0.112-1.599 0.225z"></path>
<path fill="#000" style="fill: var(--color2, #000)" d="M41.474 23.866l-4.092-18.945h1.748l1.953 9.332c0.54 2.557 1.004 4.862 1.34 7.083h0.037c0.353-2.192 0.874-4.581 1.432-7.055l2.121-9.362h1.731l-4.485 18.946z"></path>
<path fill="#000" style="fill: var(--color2, #000)" d="M55.592 14.985h-4.873v6.83h5.431v2.052h-7.049v-18.944h6.77v2.052h-5.152v5.987h4.873z"></path>
<path fill="#000" style="fill: var(--color2, #000)" d="M58.252 4.923h1.617v16.892h5.357v2.052h-6.979z"></path>
</symbol>
<symbol id="icon-superman" viewBox="0 0 32 32">
<title>superman</title>
<path fill="#fff" style="fill: var(--color1, #fff)" d="M16 31.493c-8.556-0-15.492-6.937-15.492-15.493 0-4.278 1.734-8.151 4.538-10.955 2.811-2.848 6.714-4.611 11.028-4.611 8.557 0 15.493 6.936 15.493 15.493 0 4.315-1.764 8.218-4.61 11.027-2.79 2.805-6.65 4.54-10.915 4.54-0.015 0-0.029-0-0.044-0z"></path>
<path fill="#000" style="fill: var(--color2, #000)" d="M16 1.014c8.24 0.011 14.916 6.694 14.916 14.936 0 8.249-6.687 14.936-14.936 14.936s-14.936-6.687-14.936-14.936c0-6.15 3.717-11.431 9.026-13.721 1.81-0.782 3.804-1.215 5.901-1.215 0.010 0 0.020 0 0.031 0zM16 0c-8.837 0-16 7.163-16 16s7.163 16 16 16 16-7.163 16-16-7.163-16-16-16z"></path>
<path fill="none" stroke="#000" stroke-width="1.0141" stroke-miterlimit="10" stroke-linecap="butt" stroke-linejoin="miter" d="M7.69 11.127l16.563-0.113"></path>
<path fill="none" stroke="#000" stroke-width="1.0141" stroke-miterlimit="10" stroke-linecap="butt" stroke-linejoin="miter" d="M6.789 13.549l1.296-2.423"></path>
<path fill="none" stroke="#000" stroke-width="1.0141" stroke-miterlimit="10" stroke-linecap="butt" stroke-linejoin="miter" d="M25.662 13.549l-1.408-2.479"></path>
<path fill="none" stroke="#000" stroke-width="1.0141" stroke-miterlimit="10" stroke-linecap="butt" stroke-linejoin="miter" d="M6.394 13.549l9.634 11.155"></path>
<path fill="none" stroke="#000" stroke-width="1.0141" stroke-miterlimit="10" stroke-linecap="butt" stroke-linejoin="miter" d="M25.662 13.549l-9.634 11.155"></path>
<path fill="#000" style="fill: var(--color2, #000)" d="M11.255 17.588c1.056 0.246 2.6 0.451 4.225 0.451 2.411 0 3.819-0.482 3.819-1.18 0-0.646-0.975-1.014-3.439-1.375-2.979-0.4-4.821-0.985-4.821-1.959 0-1.077 2.356-1.877 5.904-1.877 1.869 0 3.223 0.164 4.035 0.338l-0.65 0.728c-1.010-0.209-2.171-0.329-3.36-0.329-0.038 0-0.075 0-0.112 0-2.486-0-3.434 0.563-3.434 1.036 0 0.646 1.11 0.964 3.629 1.334 3.087 0.451 4.659 1.014 4.659 2.028 0 1.066-2.084 1.99-6.392 1.99-1.761 0-3.683-0.195-4.659-0.441z"></path>
</symbol>
<symbol id="icon-thor" viewBox="0 0 32 32">
<title>thor</title>
<path fill="#fff" style="fill: var(--color1, #fff)" d="M16 31.546c-8.586-0-15.546-6.96-15.546-15.546s6.96-15.546 15.546-15.546 15.546 6.96 15.546 15.546c0 4.293-1.74 8.18-4.553 10.993-2.798 2.813-6.671 4.553-10.95 4.553-0.015 0-0.030-0-0.045-0z"></path>
<path fill="#000" style="fill: var(--color2, #000)" d="M16 0.908c8.299 0.011 15.022 6.742 15.022 15.042 0 8.308-6.735 15.042-15.042 15.042s-15.042-6.735-15.042-15.042c0-6.194 3.743-11.513 9.091-13.819 1.822-0.787 3.831-1.223 5.942-1.223 0.010 0 0.021 0 0.031 0zM16 0c-8.836 0-16 7.164-16 16s7.164 16 16 16 16-7.164 16-16-7.164-16-16-16z"></path>
<path fill="#fff" style="fill: var(--color1, #fff)" d="M21.515 20.237c-0.067-0-0.13-0.020-0.183-0.054l-10.609-6.788c-0.095-0.061-0.157-0.167-0.157-0.287 0-0.068 0.020-0.132 0.055-0.185l3.546-5.543c0.062-0.095 0.167-0.157 0.287-0.157 0.001 0 0.002 0 0.002 0 0.067 0 0.13 0.020 0.183 0.054l10.609 6.788c0.095 0.061 0.157 0.167 0.157 0.287 0 0.068-0.020 0.132-0.055 0.185l-3.546 5.542c-0.062 0.094-0.167 0.156-0.286 0.156-0.001 0-0.002 0-0.003-0z"></path>
<path fill="#000" style="fill: var(--color2, #000)" d="M14.456 7.565l10.607 6.787s0 0 0 0v0l-3.546 5.542s0 0 0 0l-10.61-6.788s0 0 0 0v0l3.546-5.542zM14.453 6.883c-0.001 0-0.001 0-0.002 0-0.239 0-0.45 0.124-0.571 0.311l-3.549 5.546c-0.067 0.104-0.107 0.231-0.107 0.367 0 0.24 0.124 0.451 0.311 0.572l10.613 6.791c0.104 0.067 0.231 0.107 0.367 0.107 0.24 0 0.451-0.124 0.572-0.311l3.549-5.546c0.067-0.104 0.107-0.231 0.107-0.367 0-0.24-0.124-0.451-0.311-0.572l-10.613-6.791c-0.103-0.067-0.229-0.107-0.364-0.107-0 0-0.001 0-0.001 0z"></path>
<path fill="#fff" style="fill: var(--color1, #fff)" d="M11.221 26.254c-0 0-0 0-0 0-0.031 0-0.060-0.009-0.084-0.025l-2.281-1.46c-0.043-0.029-0.072-0.078-0.072-0.133 0-0.031 0.009-0.060 0.024-0.085l5.399-8.437c0.028-0.044 0.077-0.073 0.133-0.073 0 0 0.001 0 0.001 0s0 0 0 0c0.031 0 0.060 0.009 0.084 0.025l2.281 1.46c0.044 0.029 0.072 0.078 0.072 0.133 0 0.031-0.009 0.061-0.025 0.085l-5.399 8.437c-0.029 0.044-0.078 0.073-0.133 0.073-0 0-0.001 0-0.001 0z"></path>
<path fill="#000" style="fill: var(--color2, #000)" d="M14.369 16.333l2.118 1.355-5.295 8.273-2.118-1.355 5.294-8.273zM14.34 15.785c-0 0-0.001 0-0.001 0-0.145 0-0.273 0.075-0.347 0.188l-5.4 8.44c-0.041 0.063-0.065 0.14-0.065 0.222 0 0.146 0.075 0.274 0.189 0.347l2.284 1.461c0.063 0.041 0.14 0.065 0.222 0.065 0.146 0 0.274-0.075 0.347-0.189l5.4-8.439c0.041-0.063 0.065-0.14 0.065-0.222 0-0.146-0.075-0.274-0.189-0.347l-2.284-1.461c-0.062-0.041-0.139-0.065-0.221-0.065-0 0-0.001 0-0.001 0z"></path>
<path fill="none" stroke="#000" stroke-width="0.3404" stroke-miterlimit="10" stroke-linecap="butt" stroke-linejoin="miter" d="M11.915 13.73l3.688-5.56"></path>
<path fill="none" stroke="#000" stroke-width="0.3404" stroke-miterlimit="10" stroke-linecap="butt" stroke-linejoin="miter" d="M12.426 14.128l3.688-5.56"></path>
<path fill="none" stroke="#000" stroke-width="0.3404" stroke-miterlimit="10" stroke-linecap="butt" stroke-linejoin="miter" d="M19.461 18.553l3.688-5.56"></path>
<path fill="none" stroke="#000" stroke-width="0.3404" stroke-miterlimit="10" stroke-linecap="butt" stroke-linejoin="miter" d="M19.972 18.95l3.688-5.56"></path>
</symbol>
</defs>
</svg>
