<svg id="thor" xmlns="http://www.w3.org/2000/svg" viewBox="0 0 564 564">
  <title>thor</title>
  <g>
    <path d="M683,642a274,274,0,1,1,193.75-80.25A272.2,272.2,0,0,1,683,642Z" transform="translate(-401 -86)" fill="#fff"/>
    <path d="M683,102a265.12,265.12,0,1,1-103.53,20.9A264.32,264.32,0,0,1,683,102m0-16C527.26,86,401,212.26,401,368S527.26,650,683,650,965,523.74,965,368,838.74,86,683,86Z" transform="translate(-401 -86)"/>
  </g>
  <g>
    <path d="M780.2,442.67a5.93,5.93,0,0,1-3.2-.94L590,322.08a6,6,0,0,1-1.82-8.29l62.52-97.71a6,6,0,0,1,5.09-2.76,5.93,5.93,0,0,1,3.2.94L846,333.92a6,6,0,0,1,1.82,8.29l-62.52,97.71A6,6,0,0,1,780.2,442.67Z" transform="translate(-401 -86)" fill="#fff"/>
    <path d="M655.79,219.33,842.73,338.95s0,0,0,0h0l-62.5,97.68s0,0,0,0l-187-119.63s0,0,0,0h0l62.5-97.68h0m0-12a12,12,0,0,0-10.14,5.52l-62.52,97.71a12,12,0,0,0,3.64,16.58l187,119.66a12,12,0,0,0,16.58-3.64l62.52-97.71a12,12,0,0,0-3.64-16.58l-187-119.66a11.9,11.9,0,0,0-6.44-1.88Z" transform="translate(-401 -86)"/>
  </g>
  <g>
    <path d="M598.77,548.72a2.74,2.74,0,0,1-1.48-.43l-40.22-25.74a2.82,2.82,0,0,1-.84-3.84L651.39,370a2.78,2.78,0,0,1,2.36-1.28,2.74,2.74,0,0,1,1.48.43l40.22,25.74a2.8,2.8,0,0,1,.84,3.84L601.13,547.44A2.79,2.79,0,0,1,598.77,548.72Z" transform="translate(-401 -86)" fill="#fff"/>
    <path d="M654.26,373.87l37.33,23.89L598.27,543.57l-37.33-23.89,93.31-145.82m-.5-9.65a7.29,7.29,0,0,0-6.15,3.35L552.44,516.28a7.3,7.3,0,0,0,2.21,10.06l40.22,25.74a7.3,7.3,0,0,0,10.06-2.21l95.16-148.71a7.3,7.3,0,0,0-2.21-10.06l-40.22-25.74a7.22,7.22,0,0,0-3.91-1.14Z" transform="translate(-401 -86)"/>
  </g>
  <line x1="210" y1="242" x2="275" y2="144" fill="none" stroke="#000" stroke-miterlimit="10" stroke-width="6"/>
  <line x1="219" y1="249" x2="284" y2="151" fill="none" stroke="#000" stroke-miterlimit="10" stroke-width="6"/>
  <line x1="343" y1="327" x2="408" y2="229" fill="none" stroke="#000" stroke-miterlimit="10" stroke-width="6"/>
  <line x1="352" y1="334" x2="417" y2="236" fill="none" stroke="#000" stroke-miterlimit="10" stroke-width="6"/>
</svg>
